<svg width="50" height="50" viewBox="0 0 50 50" fill="none" xmlns="http://www.w3.org/2000/svg">
<path d="M25 50C38.8071 50 50 38.8071 50 25C50 11.1929 38.8071 0 25 0C11.1929 0 0 11.1929 0 25C0 38.8071 11.1929 50 25 50Z" fill="#63E6E2"/>
<path d="M32.7597 15.5421C31.81 15.5421 31.0396 16.3126 31.0396 17.2623C31.0396 18.212 31.81 18.9825 32.7597 18.9825C33.7093 18.9825 34.4799 18.212 34.4799 17.2623C34.4799 16.3126 33.7093 15.5421 32.7597 15.5421Z" fill="white"/>
<path d="M25.1193 17.7462C21.1378 17.7462 17.9016 20.9859 17.9016 24.9638C17.9016 28.9418 21.1413 32.1814 25.1193 32.1814C29.0972 32.1814 32.3368 28.9418 32.3368 24.9638C32.3368 20.9859 29.0972 17.7462 25.1193 17.7462ZM25.1193 29.5904C22.5677 29.5904 20.4962 27.5154 20.4962 24.9674C20.4962 22.4194 22.5712 20.3444 25.1193 20.3444C27.6673 20.3444 29.7422 22.4194 29.7422 24.9674C29.7422 27.5154 27.6673 29.5904 25.1193 29.5904Z" fill="white"/>
<path d="M30.8489 39.6214H19.1445C14.2885 39.6214 10.3394 35.6722 10.3394 30.8162V19.1118C10.3394 14.2559 14.2885 10.3066 19.1445 10.3066H30.8489C35.7049 10.3066 39.6542 14.2559 39.6542 19.1118V30.8162C39.6542 35.6722 35.7049 39.6214 30.8489 39.6214ZM19.1445 13.0661C15.8116 13.0661 13.0988 15.779 13.0988 19.1118V30.8162C13.0988 34.1491 15.8116 36.862 19.1445 36.862H30.8489C34.1818 36.862 36.8946 34.1491 36.8946 30.8162V19.1118C36.8946 15.7754 34.1818 13.0661 30.8489 13.0661H19.1445Z" fill="white"/>
</svg>
